<svg xmlns="http://www.w3.org/2000/svg" width="14" height="14" fill="none" viewBox="0 0 14 14"><g clip-path="url(#clip0_28327_10558)"><path fill="#fff" fill-opacity=".01" d="M14 0H0V14H14V0Z"/><path stroke="#EC5151" stroke-linejoin="round" stroke-width=".875" d="M6.99996 12.8332C8.61078 12.8332 10.0691 12.1802 11.1247 11.1246C12.1804 10.069 12.8333 8.61065 12.8333 6.99984C12.8333 5.38902 12.1804 3.93069 11.1247 2.87505C10.0691 1.81942 8.61078 1.1665 6.99996 1.1665C5.38914 1.1665 3.93081 1.81942 2.87517 2.87505C1.81954 3.93069 1.16663 5.38902 1.16663 6.99984C1.16663 8.61065 1.81954 10.069 2.87517 11.1246C3.93081 12.1802 5.38914 12.8332 6.99996 12.8332Z"/><path fill="#EC5151" fill-rule="evenodd" d="M7.00004 10.7918C7.40274 10.7918 7.72921 10.4654 7.72921 10.0627C7.72921 9.65996 7.40274 9.3335 7.00004 9.3335C6.59734 9.3335 6.27087 9.65996 6.27087 10.0627C6.27087 10.4654 6.59734 10.7918 7.00004 10.7918Z" clip-rule="evenodd"/><path stroke="#EC5151" stroke-linecap="round" stroke-linejoin="round" stroke-width=".875" d="M7 3.5V8.16667"/></g><defs><clipPath id="clip0_28327_10558"><rect width="14" height="14" fill="#fff"/></clipPath></defs></svg>