<svg xmlns="http://www.w3.org/2000/svg" width="28" height="28" fill="none" viewBox="0 0 28 28"><circle cx="14" cy="14" r="14" fill="#fff"/><path fill="url(#paint0_linear_1004_118)" d="M8.38975 18.0132L14.4694 2.0126C15.6516 1.91607 18.7252 2.33117 21.5623 4.76384C18.262 8.06532 11.4055 14.9724 8.38975 18.0132Z"/><path fill="url(#paint1_linear_1004_118)" d="M11.2848 4.03983L2.02059 13.3072C1.89996 15.0448 2.25219 19.1137 4.62615 21.4885C6.07369 17.4919 9.66841 8.19082 11.2848 4.03983Z"/><path fill="url(#paint2_linear_1004_118)" d="M21.7071 23.1537C15.4537 28.3086 8.82401 25.3016 6.29082 23.1537L13.9628 15.5516C15.6998 17.2892 19.6805 21.2423 21.7071 23.1537Z"/><path fill="url(#paint3_linear_1004_118)" d="M23.1546 21.5609C25.3018 19.0268 28.3079 12.3949 23.1546 6.13946C21.2439 8.16669 17.2921 12.1487 15.5551 13.8864L23.1546 21.5609Z"/><mask id="mask0_1004_118" width="24" height="24" x="2" y="2" maskUnits="userSpaceOnUse" style="mask-type:alpha"><path fill="url(#paint4_linear_1004_118)" d="M8.38975 18.0132L14.4694 2.0126C15.6516 1.91607 18.7252 2.33117 21.5623 4.76384C18.262 8.06532 11.4055 14.9724 8.38975 18.0132Z"/><path fill="url(#paint5_linear_1004_118)" d="M11.2848 4.03983L2.02059 13.3072C1.89996 15.0448 2.25219 19.1137 4.62615 21.4885C6.07369 17.4919 9.66841 8.19082 11.2848 4.03983Z"/><path fill="url(#paint6_linear_1004_118)" d="M21.7071 23.1537C15.4537 28.3086 8.82401 25.3016 6.29082 23.1537L13.9628 15.5516C15.6998 17.2892 19.6805 21.2423 21.7071 23.1537Z"/><path fill="url(#paint7_linear_1004_118)" d="M23.1546 21.5609C25.3018 19.0268 28.3079 12.3949 23.1546 6.13946C21.2439 8.16669 17.2921 12.1487 15.5551 13.8864L23.1546 21.5609Z"/></mask><g mask="url(#mask0_1004_118)"><g filter="url(#filter0_f_1004_118)"><ellipse fill="url(#paint8_linear_1004_118)" rx="5.929" ry="5.929" transform="matrix(-0.697187 0.716889 -0.716657 -0.697426 19.7004 21.6141)"/></g></g><defs><filter id="filter0_f_1004_118" width="14.958" height="14.962" x="12.222" y="14.133" color-interpolation-filters="sRGB" filterUnits="userSpaceOnUse"><feFlood flood-opacity="0" result="BackgroundImageFix"/><feBlend in="SourceGraphic" in2="BackgroundImageFix" mode="normal" result="shape"/><feGaussianBlur result="effect1_foregroundBlur_1004_118" stdDeviation=".775"/></filter><linearGradient id="paint0_linear_1004_118" x1="21.56" x2="9.982" y1="4.4" y2="22.707" gradientUnits="userSpaceOnUse"><stop stop-color="#FB8C05"/><stop offset=".479" stop-color="#FE3400"/><stop offset="1" stop-color="#B6022F"/></linearGradient><linearGradient id="paint1_linear_1004_118" x1="21.56" x2="9.982" y1="4.4" y2="22.707" gradientUnits="userSpaceOnUse"><stop stop-color="#FB8C05"/><stop offset=".479" stop-color="#FE3400"/><stop offset="1" stop-color="#B6022F"/></linearGradient><linearGradient id="paint2_linear_1004_118" x1="21.56" x2="9.982" y1="4.4" y2="22.707" gradientUnits="userSpaceOnUse"><stop stop-color="#FB8C05"/><stop offset=".479" stop-color="#FE3400"/><stop offset="1" stop-color="#B6022F"/></linearGradient><linearGradient id="paint3_linear_1004_118" x1="21.56" x2="9.982" y1="4.4" y2="22.707" gradientUnits="userSpaceOnUse"><stop stop-color="#FB8C05"/><stop offset=".479" stop-color="#FE3400"/><stop offset="1" stop-color="#B6022F"/></linearGradient><linearGradient id="paint4_linear_1004_118" x1="21.56" x2="9.982" y1="4.4" y2="22.707" gradientUnits="userSpaceOnUse"><stop stop-color="#FB8C05"/><stop offset=".479" stop-color="#FE3400"/><stop offset="1" stop-color="#B6022F"/></linearGradient><linearGradient id="paint5_linear_1004_118" x1="21.56" x2="9.982" y1="4.4" y2="22.707" gradientUnits="userSpaceOnUse"><stop stop-color="#FB8C05"/><stop offset=".479" stop-color="#FE3400"/><stop offset="1" stop-color="#B6022F"/></linearGradient><linearGradient id="paint6_linear_1004_118" x1="21.56" x2="9.982" y1="4.4" y2="22.707" gradientUnits="userSpaceOnUse"><stop stop-color="#FB8C05"/><stop offset=".479" stop-color="#FE3400"/><stop offset="1" stop-color="#B6022F"/></linearGradient><linearGradient id="paint7_linear_1004_118" x1="21.56" x2="9.982" y1="4.4" y2="22.707" gradientUnits="userSpaceOnUse"><stop stop-color="#FB8C05"/><stop offset=".479" stop-color="#FE3400"/><stop offset="1" stop-color="#B6022F"/></linearGradient><linearGradient id="paint8_linear_1004_118" x1="0" x2="10.151" y1="4.851" y2="6.738" gradientUnits="userSpaceOnUse"><stop stop-color="#D4016A" stop-opacity="0"/><stop offset="1" stop-color="#D4016A"/></linearGradient></defs></svg>