<svg xmlns="http://www.w3.org/2000/svg" width="20" height="20" fill="none" viewBox="0 0 20 20"><path fill="#fff" fill-opacity=".01" d="M20 0H0V20H20V0Z"/><path stroke="#13141A" stroke-linecap="round" stroke-linejoin="round" stroke-width="1.25" d="M10 8.33333C11.6108 8.33333 12.9167 7.0275 12.9167 5.41667C12.9167 3.80584 11.6108 2.5 10 2.5C8.38918 2.5 7.08334 3.80584 7.08334 5.41667C7.08334 7.0275 8.38918 8.33333 10 8.33333Z"/><path stroke="#13141A" stroke-linecap="round" stroke-linejoin="round" stroke-width="1.25" d="M2.5 17V17.5H17.5V17C17.5 15.1332 17.5 14.1998 17.1367 13.4867C16.8171 12.8595 16.3072 12.3496 15.68 12.03C14.9669 11.6667 14.0335 11.6667 12.1667 11.6667H7.83333C5.9665 11.6667 5.03308 11.6667 4.32004 12.03C3.69283 12.3496 3.18289 12.8595 2.86331 13.4867C2.5 14.1998 2.5 15.1332 2.5 17Z"/></svg>